<svg width="24" height="17" viewBox="0 0 24 17" fill="none" xmlns="http://www.w3.org/2000/svg">
<path d="M2.65256 0H21.3474C23.1111 0 24 0.835833 24 2.53583V14.4642C24 16.15 23.1111 17 21.3474 17H2.65256C0.888889 17 0 16.15 0 14.4642V2.53583C0 0.835833 0.888889 0 2.65256 0ZM11.9929 12.1833L21.5026 4.34917C21.8413 4.06583 22.1093 3.41417 21.6861 2.83333C21.2769 2.2525 20.5291 2.23833 20.0353 2.5925L11.9929 8.06083L3.96473 2.5925C3.4709 2.23833 2.7231 2.2525 2.31393 2.83333C1.89065 3.41417 2.15873 4.06583 2.49735 4.34917L11.9929 12.1833Z" fill="#CE9461"/>
</svg>
