<svg width="25" height="25" viewBox="0 0 25 25" fill="none" xmlns="http://www.w3.org/2000/svg">
<path d="M18.75 8.33333H20.8333C21.1096 8.33333 21.3746 8.44308 21.5699 8.63843C21.7653 8.83378 21.875 9.09873 21.875 9.375V21.875C21.875 22.1513 21.7653 22.4162 21.5699 22.6116C21.3746 22.8069 21.1096 22.9167 20.8333 22.9167H4.16667C3.8904 22.9167 3.62545 22.8069 3.4301 22.6116C3.23475 22.4162 3.125 22.1513 3.125 21.875V9.375C3.125 9.09873 3.23475 8.83378 3.4301 8.63843C3.62545 8.44308 3.8904 8.33333 4.16667 8.33333H6.25V7.29167C6.25 5.63406 6.90848 4.04435 8.08058 2.87225C9.25269 1.70015 10.8424 1.04167 12.5 1.04167C14.1576 1.04167 15.7473 1.70015 16.9194 2.87225C18.0915 4.04435 18.75 5.63406 18.75 7.29167V8.33333ZM16.6667 8.33333V7.29167C16.6667 6.1866 16.2277 5.12679 15.4463 4.34539C14.6649 3.56399 13.6051 3.125 12.5 3.125C11.3949 3.125 10.3351 3.56399 9.55372 4.34539C8.77232 5.12679 8.33333 6.1866 8.33333 7.29167V8.33333H16.6667ZM11.4583 14.5833V16.6667H13.5417V14.5833H11.4583ZM7.29167 14.5833V16.6667H9.375V14.5833H7.29167ZM15.625 14.5833V16.6667H17.7083V14.5833H15.625Z" fill="#CE9461"/>
</svg>
