<svg width="27" height="27" viewBox="0 0 27 27" fill="none" xmlns="http://www.w3.org/2000/svg">
<path d="M13.5 2.25C7.40137 2.25 2.25 7.40137 2.25 13.5C2.25 19.5986 7.40137 24.75 13.5 24.75C19.5986 24.75 24.75 19.5986 24.75 13.5C24.75 7.40137 19.5986 2.25 13.5 2.25ZM13.5 7.875C15.4429 7.875 16.875 9.306 16.875 11.25C16.875 13.194 15.4429 14.625 13.5 14.625C11.5583 14.625 10.125 13.194 10.125 11.25C10.125 9.306 11.5583 7.875 13.5 7.875ZM7.75575 18.8685C8.76487 17.3835 10.4479 16.3935 12.375 16.3935H14.625C16.5533 16.3935 18.2351 17.3835 19.2443 18.8685C17.8065 20.4075 15.7669 21.375 13.5 21.375C11.2331 21.375 9.1935 20.4075 7.75575 18.8685Z" fill="#CE9461"/>
</svg>
